<?xml version="1.0" encoding="utf-8"?>
<!-- Svg Vector Icons : http://www.onlinewebfonts.com/icon -->
<!DOCTYPE svg PUBLIC "-//W3C//DTD SVG 1.1//EN" "http://www.w3.org/Graphics/SVG/1.1/DTD/svg11.dtd">
<svg version="1.1" xmlns="http://www.w3.org/2000/svg" xmlns:xlink="http://www.w3.org/1999/xlink" x="0px" y="0px" viewBox="0 0 1000 1000" enable-background="new 0 0 1000 1000" xml:space="preserve">
<metadata> Svg Vector Icons : http://www.onlinewebfonts.com/icon </metadata>
<g><g transform="translate(0.000000,511.000000) scale(0.100000,-0.100000)"><path d="M4202.5,4367.9c-247.4-86.3-396.9-276.1-421.9-531.2c-28.8-304.9,187.9-590.6,490.9-648.1l117-23v-327.9v-327.9l-147.7-24.9c-366.3-59.4-809.2-209-1194.7-404.6C1654,1374.5,727.8-94.4,718.2-1609.3c-1.9-268.5,1.9-293.4,44.1-383.5c61.4-120.8,178.3-237.8,299.2-299.1l95.9-46h3844.8H8847l95.9,46c120.8,61.4,237.8,178.3,299.1,299.1c42.2,88.2,46,115.1,44.1,373.9C9278.4-433.8,8699.3,770.5,7761.6,1549c-581.1,481.3-1317.4,826.5-1998.2,935.8l-147.7,24.9v327.9v327.9l117,23c301.1,57.5,515.8,339.4,492.8,644.3c-19.2,220.5-153.4,414.2-358.6,510.1l-107.4,49.8l-728.7,3.8C4367.4,4402.4,4292.6,4398.6,4202.5,4367.9z"/><path d="M520.7-2997.7c-180.3-61.3-274.2-145.7-372-327.9c-65.2-124.6-65.2-372,1.9-508.2c59.4-122.7,176.4-237.8,297.2-299.1l95.9-46h4458.5h4458.5l95.9,46c120.8,61.3,237.8,176.4,297.2,299.1c38.3,78.6,47.9,124.6,46,258.9c0,138.1-7.7,178.3-51.8,262.7c-69,132.3-168.8,230.1-299.2,291.5l-107.4,49.9l-4410.5,3.8C825.6-2963.1,616.6-2963.1,520.7-2997.7z"/></g></g>
</svg>